<svg version="1" xmlns="http://www.w3.org/2000/svg" width="222pt" height="161pt" viewBox="0 0 222.000000 161.000000" style="fill:rgb(255,255,255);"><path d="M146.5 3.6c-1.4 1.5-2.5 3.1-2.5 3.7 0 .6-.8.3-1.8-.6-3.2-2.9-5.2-1.9-13.2 6-6.4 6.5-8.6 9.7-13.2 18.8-3 6-6.5 14-7.9 17.7-1.3 3.8-2.7 6.8-3.1 6.8-.4 0-5.1-2.9-10.5-6.3-23.2-15.1-43-25.8-53-28.7-3.4-1.1-4.5-1-5.8 0-3.7 3.1-.8 10.8 7.5 19.4 5.7 6 5.9 6.4 3.8 7-1.3.3-3.8.6-5.5.6-3 0-3.3.3-3.3 3 0 4.2 3 9.7 7.9 14.5 3.5 3.4 4.8 4 8.5 4 5.2 0 4.8.8-2.3 5-6.3 3.7-6.6 6.3-1.6 11 3.7 3.5 7.6 5.1 16.5 6.9 7.1 1.4 7.6 3.4 2.1 8.3-3.8 3.5-3.9 3.7-2.6 6.4 1.9 3.6 6.2 6.9 9.1 6.9 4.1 0 3.5 1.8-2.1 6.4-19 15.5-43.2 14.9-67.3-1.6-2.4-1.7-4.5-2.8-4.7-2.6-1.1 1.1 4.5 9.7 9.5 14.8 20 20.5 57.1 32 93.4 28.9 25.4-2.1 40.4-8.4 57.1-24 11.3-10.6 24.1-29.3 30.2-43.9l2.7-6.7 7.8-1.1c4.3-.7 9.6-2.1 11.7-3.2 3.6-1.8 7.1-5.3 7.1-7.2 0-.4-3.5-.7-7.8-.6-10.9.2-11.8-.7-4.1-4.8 6.3-3.4 12.8-8.8 11.8-9.9-.3-.3-2.2.1-4.1.9-4.8 2.1-12.6 2.9-17.2 1.9-3.8-.8-4-1.1-7.5-9.8-7.1-17.7-17.6-28.7-31.5-33-2.8-.9-5.7-1.9-6.5-2.1-.9-.3.2-1.5 3-3.3 3.8-2.4 7.9-6.8 7.9-8.6 0-1-5.1-.5-8.5.9-3.2 1.4-3.5 1.4-3.5-.3 0-1.8-1.8-4.1-3.2-4.1-.5 0-2 1.2-3.3 2.6z"/></svg>